<svg preserveAspectRatio="none" width="100%" height="100%" overflow="visible" style="display: block;" viewBox="0 0 15.6667 12.9625" fill="none" xmlns="http://www.w3.org/2000/svg">
<path id="Icon" d="M15.1667 0.506704C14.5283 0.957022 13.8215 1.30144 13.0734 1.5267C12.6719 1.06504 12.1383 0.737832 11.5447 0.589321C10.9512 0.440811 10.3264 0.478168 9.75477 0.696339C9.18316 0.914511 8.69235 1.30297 8.34871 1.80918C8.00507 2.31539 7.82518 2.91493 7.83338 3.5267V4.19337C6.66181 4.22375 5.5009 3.96391 4.45406 3.437C3.40721 2.91009 2.50693 2.13246 1.83338 1.17337C1.83338 1.17337 -0.833281 7.17337 5.16672 9.84004C3.79374 10.772 2.15816 11.2393 0.500052 11.1734C6.50005 14.5067 13.8334 11.1734 13.8334 3.5067C13.8328 3.32101 13.8149 3.13577 13.7801 2.95337C14.4605 2.28237 14.9406 1.43518 15.1667 0.506704Z" stroke="var(--stroke-0, #1E1E1E)" stroke-linecap="round" stroke-linejoin="round"/>
</svg>
