<svg preserveAspectRatio="none" width="100%" height="100%" overflow="visible" style="display: block;" viewBox="0 0 14.3333 14.3333" fill="none" xmlns="http://www.w3.org/2000/svg">
<path id="Icon" d="M2.5 9.16667H1.83333C1.47971 9.16667 1.14057 9.02619 0.890524 8.77614C0.640476 8.52609 0.5 8.18695 0.5 7.83333V1.83333C0.5 1.47971 0.640476 1.14057 0.890524 0.890524C1.14057 0.640476 1.47971 0.5 1.83333 0.5H7.83333C8.18695 0.5 8.52609 0.640476 8.77614 0.890524C9.02619 1.14057 9.16667 1.47971 9.16667 1.83333V2.5M6.5 5.16667H12.5C13.2364 5.16667 13.8333 5.76362 13.8333 6.5V12.5C13.8333 13.2364 13.2364 13.8333 12.5 13.8333H6.5C5.76362 13.8333 5.16667 13.2364 5.16667 12.5V6.5C5.16667 5.76362 5.76362 5.16667 6.5 5.16667Z" stroke="var(--stroke-0, #1E1E1E)" stroke-linecap="round" stroke-linejoin="round"/>
</svg>
