<svg preserveAspectRatio="none" width="100%" height="100%" overflow="visible" style="display: block;" viewBox="0 0 14.3333 13.6667" fill="none" xmlns="http://www.w3.org/2000/svg">
<g id="Icon">
<path d="M9.83333 4.5C10.8942 4.5 11.9116 4.92143 12.6618 5.67157C13.4119 6.42172 13.8333 7.43913 13.8333 8.5V13.1667H11.1667V8.5C11.1667 8.14638 11.0262 7.80724 10.7761 7.55719C10.5261 7.30714 10.187 7.16667 9.83333 7.16667C9.47971 7.16667 9.14057 7.30714 8.89052 7.55719C8.64048 7.80724 8.5 8.14638 8.5 8.5V13.1667H5.83333V8.5C5.83333 7.43913 6.25476 6.42172 7.00491 5.67157C7.75505 4.92143 8.77247 4.5 9.83333 4.5Z" stroke="var(--stroke-0, #1E1E1E)" stroke-linecap="round" stroke-linejoin="round"/>
<path d="M3.16667 5.16667H0.5V13.1667H3.16667V5.16667Z" stroke="var(--stroke-0, #1E1E1E)" stroke-linecap="round" stroke-linejoin="round"/>
<path d="M1.83333 3.16667C2.56971 3.16667 3.16667 2.56971 3.16667 1.83333C3.16667 1.09695 2.56971 0.5 1.83333 0.5C1.09695 0.5 0.5 1.09695 0.5 1.83333C0.5 2.56971 1.09695 3.16667 1.83333 3.16667Z" stroke="var(--stroke-0, #1E1E1E)" stroke-linecap="round" stroke-linejoin="round"/>
</g>
</svg>
